:SAMPLES-PER-SECOND 30
:FULLY-SPECIFIED
:DEGREES
351
root  -10.981 34.5462 2.42461 -169.254 2.02727 179.962
RightUpLeg  -14.4236 -8.01022 -1.20267
RightLeg  11.1289 -1.075 -0.139554
RightFoot  3.78162 0.0147077 0.0800675
RightToes  -27.868 -0.129475 -0.236828
Spine  -0.348704 0.465048 0.0880813
Spine1  -0.841676 1.1184 0.64007
HEad  -58.4018 4.79453 1.94135
LeftShoulder1  -1.94126e-019 -3.10601e-018 -2.51263e-017
LeftArm  -4.34099 17.6157 -83.3672
LeftForeArm  29.6566 -22.6698 -3.31863
LeftHand  -0.458374 -2.34503 7.08749
RightShoulder  -4.96962e-017 0 -2.36833e-017
RightArm  -20.6272 -20.4709 77.1312
RightForeArm  48.4879 18.808 1.63823
RightHand  -0.376574 -2.51036 -14.8984
LeftUpLeg  -14.4103 0.666186 1.00016
LeftLeg  12.8902 15.6778 2.50661
LeftFoot  2.71521 -0.0174659 0.898547
LeftToes  -20.6843 2.14545e-006 -7.7278e-009
352
root  -10.9415 34.5587 2.76555 -168.023 2.2261 -179.992
RightUpLeg  -16.2921 -7.65453 -0.862616
RightLeg  11.1978 -1.23457 -0.161911
RightFoot  4.23013 0.0172296 0.0651248
RightToes  -27.6558 -0.127957 -0.235134
Spine  -0.110079 0.514358 0.103664
Spine1  -0.364387 1.24496 0.666098
HEad  -57.1579 4.95699 1.89423
LeftShoulder1  -1.94126e-019 -3.10601e-018 -2.51263e-017
LeftArm  -3.97796 16.9185 -83.7566
LeftForeArm  29.5436 -22.844 -3.33351
LeftHand  -0.464206 -2.38561 7.14049
RightShoulder  -4.96962e-017 0 -2.36833e-017
RightArm  -19.7039 -19.1636 77.263
RightForeArm  48.1757 19.8803 1.84724
RightHand  -0.387281 -2.4041 -14.7967
LeftUpLeg  -16.208 0.676194 1.1141
LeftLeg  12.9683 15.8726 2.55884
LeftFoot  3.24851 -0.027184 1.07002
LeftToes  -21.0202 2.14545e-006 -7.7278e-009
353
root  -10.8952 34.5611 3.15154 -166.89 2.3884 -179.962
RightUpLeg  -18.2429 -7.28981 -0.556897
RightLeg  11.5005 -1.42713 -0.195008
RightFoot  4.63165 0.0201229 0.0462849
RightToes  -27.4103 -0.126501 -0.233524
Spine  0.276909 0.551899 0.113429
Spine1  0.405172 1.3504 0.666355
HEad  -55.6166 4.83739 1.8884
LeftShoulder1  -1.94126e-019 -3.10601e-018 -2.51263e-017
LeftArm  -4.0741 15.9508 -84.0473
LeftForeArm  29.7893 -22.9541 -3.32703
LeftHand  -0.43193 -2.40657 6.64205
RightShoulder  -4.96962e-017 0 -2.36833e-017
RightArm  -18.682 -17.593 77.4037
RightForeArm  47.8596 20.8836 2.046
RightHand  -0.380412 -2.44471 -14.7244
LeftUpLeg  -18.0901 0.708258 1.22905
LeftLeg  13.2506 15.9815 2.6556
LeftFoot  3.772 -0.0371652 1.23633
LeftToes  -21.3147 2.14545e-006 -7.7278e-009
354
root  -10.8552 34.5535 3.58754 -165.39 2.45757 -179.937
RightUpLeg  -20.7005 -7.07989 -0.198763
RightLeg  11.9315 -1.53678 -0.221911
RightFoot  5.03985 0.0228632 0.0308693
RightToes  -27.207 -0.125168 -0.232093
Spine  0.725155 0.590306 0.108947
Spine1  1.29824 1.45952 0.627003
HEad  -54.1041 4.53064 2.02865
LeftShoulder1  -1.94126e-019 -3.10601e-018 -2.51263e-017
LeftArm  -3.57716 14.7436 -84.0963
LeftForeArm  29.6431 -23.3462 -3.40025
LeftHand  -0.427853 -2.40712 6.58089
RightShoulder  -4.96962e-017 0 -2.36833e-017
RightArm  -18.2 -15.8309 77.6351
RightForeArm  47.8795 21.7989 2.21597
RightHand  -0.399888 -2.28931 -14.734
LeftUpLeg  -20.4719 0.752667 1.33374
LeftLeg  13.607 16.0109 2.76126
LeftFoot  4.32827 -0.0485377 1.40791
LeftToes  -21.6462 2.14545e-006 -7.7278e-009
355
root  -10.8097 34.5381 4.10472 -163.348 2.52289 -179.985
RightUpLeg  -23.7944 -6.99433 0.190261
RightLeg  12.2535 -1.49902 -0.225108
RightFoot  5.60175 0.0251746 0.0226457
RightToes  -27.067 -0.123692 -0.231073
Spine  1.1095 0.676342 0.0388307
Spine1  2.06355 1.6623 0.459865
HEad  -52.1584 3.93414 2.33615
LeftShoulder1  -1.94126e-019 -3.10601e-018 -2.51263e-017
LeftArm  -2.48105 13.3331 -83.8476
LeftForeArm  29.2631 -23.875 -3.5214
LeftHand  -0.426171 -2.35483 6.67097
RightShoulder  -4.96962e-017 0 -2.36833e-017
RightArm  -17.6528 -14.006 77.8846
RightForeArm  47.5592 22.6076 2.38235
RightHand  -0.412995 -2.1872 -14.7512
LeftUpLeg  -23.6046 0.990476 1.32822
LeftLeg  14.0871 15.8404 2.86751
LeftFoot  4.97709 -0.0620563 1.58937
LeftToes  -21.8959 2.14545e-006 -7.7278e-009
356
root  -10.7594 34.5112 4.66261 -160.957 2.36281 -179.939
RightUpLeg  -27.3236 -6.81471 0.705177
RightLeg  12.7058 -1.72818 -0.273664
RightFoot  6.16868 0.0297494 -0.0129148
RightToes  -26.8288 -0.122176 -0.229428
Spine  1.46137 0.739342 0.00452069
Spine1  2.76185 1.82606 0.3507
HEad  -49.695 3.19627 2.82039
LeftShoulder1  -1.94126e-019 -3.10601e-018 -2.51263e-017
LeftArm  -1.31808 11.7539 -83.4922
LeftForeArm  29.0457 -24.3334 -3.62683
LeftHand  -0.431122 -2.4845 6.56995
RightShoulder  -4.96962e-017 0 -2.36833e-017
RightArm  -16.8728 -12.2025 78.0075
RightForeArm  47.2425 23.3836 2.54407
RightHand  -0.418439 -2.12518 -14.6712
LeftUpLeg  -27.3018 1.1249 1.44704
LeftLeg  14.8201 15.5365 3.01674
LeftFoot  5.61119 -0.0778086 1.7492
LeftToes  -22.236 2.14545e-006 -7.7278e-009
